<?xml version="1.0" encoding="UTF-8" standalone="no"?>
<svg
   version="1.0"
   width="1280.000000pt"
   height="1266.000000pt"
   viewBox="0 0 1280.000000 1266.000000"
   preserveAspectRatio="xMidYMid meet"
   id="svg170"
   sodipodi:docname="clock.svg"
   inkscape:version="1.2.1 (9c6d41e410, 2022-07-14)"
   xmlns:inkscape="http://www.inkscape.org/namespaces/inkscape"
   xmlns:sodipodi="http://sodipodi.sourceforge.net/DTD/sodipodi-0.dtd"
   xmlns="http://www.w3.org/2000/svg"
   xmlns:svg="http://www.w3.org/2000/svg">
  <defs
     id="defs174" />
  <sodipodi:namedview
     id="namedview172"
     pagecolor="#ffffff"
     bordercolor="#000000"
     borderopacity="0.25"
     inkscape:showpageshadow="2"
     inkscape:pageopacity="0.0"
     inkscape:pagecheckerboard="0"
     inkscape:deskcolor="#d1d1d1"
     inkscape:document-units="pt"
     showgrid="false"
     inkscape:zoom="0.60841232"
     inkscape:cx="853.03992"
     inkscape:cy="843.17819"
     inkscape:window-width="3840"
     inkscape:window-height="2066"
     inkscape:window-x="2869"
     inkscape:window-y="-11"
     inkscape:window-maximized="1"
     inkscape:current-layer="svg170" />
  <metadata
     id="metadata2">
Created by potrace 1.15, written by Peter Selinger 2001-2017
</metadata>
  <g
     transform="translate(0.000000,1266.000000) scale(0.100000,-0.100000)"
     fill="#000000"
     stroke="none"
     id="g168">
    <path
       d="M6010 12646 c-7 -10 -21 -14 -34 -10 -41 10 -51 -18 -51 -136 0 -76 4 -112 14 -123 16 -21 35 -22 53 -3 8 7 25 13 38 12 36 -2 50 35 50 134 0 88 -14 133 -41 138 -9 1 -22 -4 -29 -12z"
       id="path4" />
    <path
       d="M6601 12639 c-30 -10 -63 -27 -74 -36 -72 -66 -58 -189 27 -229 32 -16 38 -15 104 5 39 12 85 33 102 47 81 69 81 173 -2 215 -45 23 -86 23 -157 -2z"
       id="path6" />
    <path
       d="M7328 12604 c-11 -24 -13 -25 -25 -8 -13 17 -14 17 -33 -2 -23 -22 -76 -223 -67 -248 7 -18 52 -22 62 -6 3 6 19 10 34 10 16 0 34 6 40 13 18 23 44 223 31 247 -14 27 -28 25 -42 -6z"
       id="path8" />
    <path
       d="M5353 12549 c-4 -14 -11 -18 -22 -14 -29 12 -34 10 -48 -15 -40 -77 12 -281 62 -240 8 7 15 19 15 28 0 13 3 12 19 -2 11 -10 24 -15 30 -12 44 28 29 240 -19 266 -26 14 -31 13 -37 -11z"
       id="path10" />
    <path
       d="M7971 12473 c-16 -22 -20 -24 -21 -10 -1 68 -88 -72 -103 -166 -11 -68 25 -111 61 -75 7 7 24 12 39 13 33 0 50 29 63 112 23 137 7 187 -39 126z"
       id="path12" />
    <path
       d="M4693 12398 c-4 -7 -19 -13 -32 -13 -41 0 -48 -26 -27 -107 28 -111 69 -180 96 -163 5 3 10 18 10 32 l0 26 24 -22 c14 -13 29 -20 35 -16 26 16 5 169 -33 243 -17 34 -57 45 -73 20z"
       id="path14" />
    <path
       d="M8621 12306 c-7 -8 -20 -12 -30 -9 -34 9 -121 -127 -137 -215 -10 -51 35 -84 65 -48 6 7 22 11 36 9 19 -4 28 2 44 28 21 33 67 165 73 204 5 40 -27 60 -51 31z"
       id="path16" />
    <path
       d="M4086 12203 c-3 -4 -6 -20 -7 -37 l0 -31 -16 23 c-8 12 -25 22 -36 22 -18 0 -19 -5 -14 -59 5 -60 35 -141 64 -173 19 -21 73 -24 73 -5 0 9 11 12 36 9 36 -4 36 -4 29 27 -9 43 -52 148 -76 188 -20 31 -42 47 -53 36z"
       id="path18" />
    <path
       d="M9225 12023 c-20 -22 -25 -24 -25 -10 0 9 -4 17 -8 17 -22 0 -121 -135 -136 -187 -10 -31 28 -51 53 -29 10 9 25 14 35 10 38 -15 126 126 126 201 0 32 -13 32 -45 -2z"
       id="path20" />
    <path
       d="M5928 12014 c-100 -15 -220 -52 -176 -53 16 -1 34 -11 46 -26 30 -37 100 -213 182 -450 39 -115 84 -246 99 -289 l28 -79 -54 -146 c-102 -276 -165 -436 -204 -520 -21 -46 -39 -88 -39 -94 0 -15 126 -1 185 21 56 20 63 30 99 149 27 87 94 243 105 243 14 0 106 -256 120 -336 6 -33 18 -64 28 -71 21 -16 223 -18 223 -3 0 6 16 10 35 10 19 0 35 2 35 4 0 5 -88 249 -174 481 -118 319 -116 362 34 735 72 178 142 319 171 346 20 18 21 18 39 -3 13 -17 19 -49 24 -135 8 -131 -6 -632 -30 -1064 -9 -165 -14 -317 -10 -338 11 -59 35 -76 110 -76 36 0 68 5 71 10 3 6 19 10 34 10 53 0 53 -3 71 375 26 536 60 983 85 1101 18 85 30 105 58 95 19 -7 22 -17 25 -72 5 -102 -46 -551 -134 -1162 -25 -176 -43 -329 -40 -342 8 -30 25 -36 119 -42 54 -4 77 -2 77 6 0 6 15 11 35 11 31 0 35 4 45 38 20 68 45 233 90 597 63 507 107 790 135 874 8 26 29 61 45 76 17 16 30 32 30 36 0 25 -163 43 -562 64 -381 20 -459 19 -528 -4 -55 -18 -55 -18 -57 -62 -3 -75 -114 -419 -135 -419 -10 0 -74 204 -94 299 -8 42 -14 108 -12 146 l3 70 -75 2 c-41 0 -114 -5 -162 -13z"
       id="path22" />
    <path
       d="M3473 11919 c-99 -32 -135 -86 -118 -176 9 -51 85 -128 117 -120 82 20 104 28 139 52 76 53 99 127 59 192 -41 67 -100 83 -197 52z"
       id="path24" />
    <path
       d="M9710 11745 c-68 -22 -90 -36 -107 -69 -21 -40 -11 -88 32 -153 43 -65 51 -66 178 -20 46 16 77 62 77 113 0 110 -74 162 -180 129z"
       id="path26" />
    <path
       d="M4296 11613 c-83 -26 -419 -192 -519 -256 -58 -37 -58 -38 -38 -55 32 -26 45 -91 80 -384 4 -38 4 -68 0 -68 -12 0 -200 182 -251 243 -38 46 -47 63 -42 83 8 31 -4 31 -93 0 -75 -26 -275 -134 -280 -153 -2 -6 12 -16 31 -23 69 -23 280 -184 513 -392 164 -148 189 -178 207 -259 42 -181 90 -593 80 -682 l-6 -59 32 17 c17 9 34 14 37 11 12 -12 183 99 183 118 0 7 -7 27 -15 44 -17 32 -58 228 -70 325 -6 55 -5 58 12 49 33 -18 191 -172 228 -222 26 -35 35 -56 30 -70 -8 -24 -2 -25 75 -3 43 12 64 13 71 6 21 -21 28 -162 29 -578 0 -522 8 -626 50 -712 17 -34 46 -75 64 -90 18 -15 36 -40 40 -55 3 -15 34 -64 69 -110 125 -165 287 -409 772 -1165 l271 -422 -52 -106 c-64 -130 -74 -183 -74 -401 l0 -169 -63 -50 c-34 -28 -215 -175 -402 -326 -187 -151 -402 -324 -478 -383 -76 -59 -145 -119 -154 -132 -20 -31 -18 -33 131 -196 176 -192 400 -376 563 -459 79 -41 102 -46 121 -27 7 7 24 12 39 13 23 0 37 14 89 92 34 51 134 224 221 385 165 302 299 536 385 669 54 85 65 89 112 40 16 -16 29 -46 35 -77 5 -28 52 -210 104 -405 99 -371 164 -635 192 -780 10 -48 20 -92 24 -98 10 -16 155 15 306 65 233 77 579 248 681 338 l47 42 -20 44 c-11 25 -74 119 -140 210 -66 91 -243 336 -394 545 l-275 381 38 79 c89 188 106 330 59 493 l-24 84 20 42 c13 25 151 181 345 387 178 189 711 758 1184 1265 l859 921 342 634 c560 1039 723 1362 723 1432 0 29 -25 87 -38 87 -4 0 -17 -7 -29 -15 -12 -8 -28 -13 -36 -10 -27 11 -140 -137 -166 -216 -14 -43 -132 -160 -441 -440 -426 -385 -807 -712 -796 -683 10 26 133 228 299 489 272 428 369 565 402 565 27 0 26 20 -2 46 -41 38 -174 114 -200 114 -13 0 -23 -6 -23 -14 0 -11 -9 -14 -32 -10 -32 4 -34 2 -65 -63 -58 -122 -473 -804 -715 -1174 -59 -91 -108 -172 -108 -180 0 -8 16 -24 35 -37 25 -15 35 -30 35 -47 0 -42 -163 -270 -873 -1220 -934 -1249 -1039 -1386 -1144 -1488 -42 -41 -54 -47 -77 -41 -52 13 -62 36 -184 429 -28 88 -65 207 -82 265 -17 58 -49 161 -70 230 -21 69 -66 217 -100 330 -34 113 -79 261 -100 330 -21 69 -52 172 -70 230 -143 475 -126 445 -382 650 -209 167 -578 482 -633 540 -30 31 -30 32 -10 47 11 8 61 35 111 59 121 58 152 94 91 106 -12 2 -26 25 -41 68 -13 36 -111 257 -219 491 -271 590 -347 776 -347 850 0 21 -3 40 -7 42 -5 3 -44 -6 -87 -20z m-212 -212 c17 -11 41 -34 54 -50 65 -89 592 -1216 592 -1267 0 -8 -4 -14 -9 -14 -38 0 -341 248 -507 415 -126 126 -149 190 -194 530 -32 240 -36 349 -16 379 20 31 38 32 80 7z m2296 -5023 c0 -7 -9 -24 -20 -38 l-19 -25 -30 29 c-35 33 -39 60 -14 95 l16 24 34 -36 c18 -20 33 -42 33 -49z"
       id="path28" />
    <path
       d="M2904 11553 c2 -10 7 -28 11 -40 6 -20 3 -20 -24 7 -58 58 -69 24 -22 -68 33 -65 96 -142 116 -142 16 0 28 28 18 43 -3 6 4 3 18 -6 36 -26 49 -21 49 16 0 38 -37 101 -97 165 -41 43 -78 57 -69 25z"
       id="path30" />
    <path
       d="M2367 11164 c-3 -3 -3 -13 0 -22 5 -14 3 -15 -8 -4 -20 19 -59 15 -59 -6 0 -23 47 -98 95 -151 38 -42 80 -55 91 -28 3 9 16 12 34 9 67 -10 45 59 -48 152 -51 51 -87 68 -105 50z"
       id="path32" />
    <path
       d="M10830 10940 c-8 -5 -27 -11 -42 -14 -30 -7 -117 -87 -147 -137 -27 -44 -28 -79 -2 -79 11 0 23 5 26 10 3 6 20 10 37 10 24 0 46 16 119 88 99 98 114 132 57 131 -18 0 -40 -4 -48 -9z"
       id="path34" />
    <path
       d="M1877 10733 c-4 -3 -7 -15 -7 -25 0 -17 -2 -17 -25 -2 -59 39 -60 -24 -1 -103 69 -91 142 -136 153 -94 4 17 9 19 25 10 11 -6 26 -8 34 -5 40 15 -12 106 -104 181 -55 46 -64 50 -75 38z"
       id="path36" />
    <path
       d="M11290 10480 c-8 -5 -27 -11 -41 -14 -29 -6 -80 -44 -156 -118 -84 -80 -68 -111 39 -77 80 25 137 59 176 104 62 70 49 145 -18 105z"
       id="path38" />
    <path
       d="M1430 10218 c0 -17 -3 -19 -12 -10 -14 14 -45 16 -53 2 -11 -17 23 -66 90 -128 70 -66 111 -85 129 -60 6 8 24 14 41 14 68 -2 31 68 -82 153 -74 56 -113 66 -113 29z"
       id="path40" />
    <path
       d="M11658 9944 c-21 -7 -53 -21 -70 -30 -43 -22 -178 -113 -178 -120 0 -3 7 -19 16 -36 12 -23 20 -29 37 -25 79 20 102 28 144 52 26 16 64 41 84 56 38 30 74 92 64 109 -8 13 -52 11 -97 -6z"
       id="path42" />
    <path
       d="M1101 9729 c-64 -22 -102 -55 -126 -110 -16 -34 -16 -45 -5 -82 14 -47 80 -117 110 -117 10 0 29 4 42 9 13 5 35 12 49 15 34 7 113 78 129 116 10 24 10 36 -1 62 -17 41 -64 95 -100 114 -33 17 -29 17 -98 -7z"
       id="path44" />
    <path
       d="M1850 9703 c-13 -9 -34 -17 -48 -18 -14 0 -36 -15 -53 -35 -45 -53 -99 -133 -99 -147 0 -7 15 -19 34 -27 19 -8 56 -34 81 -57 74 -68 256 -302 244 -313 -6 -6 -225 41 -303 65 -87 26 -116 45 -116 75 0 35 -16 37 -43 4 -24 -29 -25 -29 -31 -7 -6 21 -8 21 -37 -13 -50 -58 -206 -327 -195 -337 2 -3 17 2 34 11 16 8 32 13 34 10 3 -3 22 3 42 12 32 16 45 16 118 5 192 -28 619 -132 718 -175 89 -37 448 -472 466 -565 8 -39 18 -45 46 -29 13 7 29 11 37 9 20 -4 58 36 96 100 51 88 52 96 11 113 -19 8 -58 39 -87 68 -79 82 -188 232 -177 243 14 14 295 -67 331 -95 30 -24 50 -25 66 -6 7 8 21 12 32 9 11 -3 28 2 40 12 23 22 129 188 129 203 0 14 2 14 -240 57 -241 44 -469 98 -535 129 -27 13 -69 39 -93 59 -85 72 -358 407 -437 538 -27 43 -35 67 -31 84 8 31 -5 38 -34 18z"
       id="path46" />
    <path
       d="M11916 9450 c-134 -51 -197 -151 -152 -238 36 -70 88 -84 192 -53 74 22 114 53 133 104 19 49 -15 135 -69 181 -36 30 -39 30 -104 6z"
       id="path48" />
    <path
       d="M11292 9349 c-11 -17 -16 -18 -28 -8 -12 10 -21 5 -52 -28 -53 -57 -117 -97 -477 -303 -493 -281 -935 -541 -935 -549 0 -14 77 -126 103 -149 22 -21 28 -22 49 -10 12 7 30 13 38 13 8 0 67 34 130 76 201 133 858 509 1084 621 98 48 103 50 168 44 58 -5 67 -4 62 9 -5 13 0 15 36 9 25 -4 41 -3 38 2 -63 110 -154 263 -166 277 -20 23 -34 22 -50 -4z"
       id="path50" />
    <path
       d="M723 9101 c-4 -17 -8 -18 -29 -9 -18 9 -28 8 -37 -1 -30 -30 53 -105 156 -141 48 -17 61 -18 80 -8 12 7 33 14 46 15 13 1 31 9 40 18 15 15 13 19 -15 44 -27 24 -201 101 -227 101 -5 0 -11 -9 -14 -19z"
       id="path52" />
    <path
       d="M11479 9009 c-8 -15 -14 -18 -22 -10 -18 18 -25 13 -52 -29 -45 -71 -217 -169 -970 -550 -253 -128 -462 -235 -464 -237 -6 -4 56 -132 78 -162 17 -22 19 -23 62 -8 25 9 310 148 634 309 572 285 794 390 825 391 8 0 21 7 29 14 9 9 23 12 39 8 24 -6 25 -5 19 32 -8 46 -78 190 -113 233 -30 35 -49 38 -65 9z"
       id="path54" />
    <path
       d="M12315 8785 c-5 -1 -37 -11 -70 -20 -134 -39 -240 -114 -207 -147 15 -15 188 41 262 85 50 30 80 61 70 70 -8 7 -44 15 -55 12z"
       id="path56" />
    <path
       d="M460 8481 c0 -6 -15 -11 -35 -11 -19 0 -35 -4 -35 -10 0 -49 231 -149 255 -110 3 6 19 10 35 10 67 0 48 50 -35 91 -67 33 -185 52 -185 30z"
       id="path58" />
    <path
       d="M12483 8160 c-69 -10 -182 -45 -210 -65 -54 -38 -13 -82 60 -65 145 32 257 82 257 115 0 11 -34 27 -50 24 -3 -1 -28 -5 -57 -9z"
       id="path60" />
    <path
       d="M285 7848 c-4 -10 -14 -14 -25 -11 -11 3 -27 2 -36 -1 -46 -18 94 -96 171 -96 19 0 44 4 57 9 13 5 35 12 51 15 41 9 36 41 -12 65 -53 28 -198 40 -206 19z"
       id="path62" />
    <path
       d="M12590 7503 c-92 -16 -210 -63 -210 -84 0 -28 138 -16 256 22 66 21 98 51 68 63 -17 6 -74 6 -114 -1z"
       id="path64" />
    <path
       d="M210 7199 c-67 -8 -132 -30 -137 -46 -7 -19 33 -34 127 -45 88 -11 137 -5 190 21 22 12 24 48 3 59 -25 13 -118 19 -183 11z"
       id="path66" />
    <path
       d="M750 7110 c-10 -42 -15 -49 -26 -39 -8 6 -14 25 -14 41 0 90 -43 -57 -54 -187 -8 -83 1 -103 34 -85 13 7 42 10 67 7 68 -7 375 -161 387 -194 9 -21 -40 -45 -152 -74 -125 -33 -201 -37 -239 -12 -25 17 -27 17 -40 -4 -12 -18 -18 -20 -34 -10 -30 18 -40 -2 -51 -100 -11 -95 -5 -626 7 -655 7 -17 9 -16 33 2 17 14 29 17 36 10 6 -6 15 -5 26 5 40 36 233 51 885 70 519 15 634 23 710 49 l40 14 3 99 c2 54 0 152 -3 219 l-7 121 -156 63 c-187 75 -302 128 -302 139 0 13 173 66 280 86 52 10 104 21 115 26 11 4 31 9 45 11 15 2 30 13 37 28 16 34 37 195 29 226 -6 24 -7 24 -37 8 -17 -8 -33 -13 -36 -10 -4 3 -20 -3 -37 -13 -46 -28 -196 -74 -498 -151 l-269 -69 -282 125 c-403 179 -467 217 -467 276 0 45 -17 32 -30 -22z m962 -669 c264 -106 406 -168 470 -207 59 -36 87 -69 71 -84 -16 -16 -514 -34 -963 -34 -445 -1 -456 -1 -502 20 -85 40 -71 96 37 141 67 27 364 125 525 173 58 17 123 37 145 45 22 7 41 14 42 14 2 1 80 -30 175 -68z m-1022 -261 c0 -22 -4 -40 -10 -40 -11 0 -14 63 -3 73 11 12 13 8 13 -33z m1626 -18 c-15 -15 -16 -13 -16 23 0 39 0 39 16 16 15 -21 15 -24 0 -39z"
       id="path68" />
    <path
       d="M12567 6835 c-42 -13 -82 -27 -87 -30 -15 -9 -12 -31 5 -45 28 -23 245 26 284 64 14 15 14 18 1 26 -26 17 -122 9 -203 -15z"
       id="path70" />
    <path
       d="M12101 6739 c-85 -34 -589 -59 -1183 -59 -286 0 -438 -3 -438 -10 0 -5 -13 -10 -30 -10 l-30 0 0 -109 c0 -61 4 -112 9 -115 5 -3 44 2 88 12 70 15 144 17 718 17 602 -1 741 -6 823 -31 17 -5 22 -2 22 11 0 14 6 16 34 11 32 -6 34 -5 40 31 14 86 2 263 -18 262 -6 0 -22 -5 -35 -10z"
       id="path72" />
    <path
       d="M118 6648 c-73 -25 -100 -60 -106 -138 -4 -51 -1 -59 25 -87 40 -43 89 -51 171 -29 36 9 76 25 90 34 27 17 52 68 52 103 0 37 -47 105 -84 123 -44 21 -77 19 -148 -6z"
       id="path74" />
    <path
       d="M10480 6310 c0 -6 -13 -10 -30 -10 l-30 0 0 -98 0 -99 393 -7 c692 -12 1141 -35 1203 -61 23 -9 34 -22 39 -44 12 -55 0 -69 -63 -77 -91 -11 -970 35 -1256 66 -190 21 -227 23 -249 12 -12 -6 -33 -12 -47 -14 -37 -4 -51 -41 -48 -128 l3 -75 110 -2 c312 -7 1365 -102 1488 -134 29 -8 42 -7 54 3 9 7 26 11 39 10 36 -5 54 43 64 171 13 147 12 413 0 457 l-10 35 -830 2 c-532 2 -830 -1 -830 -7z m1634 -276 c11 -29 6 -81 -9 -94 -13 -11 -15 -5 -15 49 0 58 11 79 24 45z"
       id="path76" />
    <path
       d="M12600 6289 c-80 -23 -111 -52 -117 -111 -9 -77 42 -138 114 -138 33 0 109 22 151 44 81 42 57 190 -36 216 -44 12 -32 13 -112 -11z"
       id="path78" />
    <path
       d="M160 5900 c-36 -4 -81 -12 -101 -17 -75 -21 -78 -37 -9 -52 69 -15 157 -13 205 4 22 8 48 15 58 15 23 0 33 26 17 45 -13 16 -56 17 -170 5z"
       id="path80" />
    <path
       d="M12475 5551 c-46 -13 -60 -22 -60 -36 0 -24 30 -33 120 -34 73 -1 202 28 188 43 -38 38 -165 52 -248 27z"
       id="path82" />
    <path
       d="M187 5259 c-127 -36 -156 -64 -86 -82 39 -10 153 -3 189 12 14 5 37 12 51 15 15 3 37 14 50 25 62 50 -68 69 -204 30z"
       id="path84" />
    <path
       d="M2455 5037 c-16 -5 -55 -22 -85 -37 -221 -111 -1289 -500 -1370 -500 -16 0 -32 -4 -35 -10 -3 -5 -19 -10 -36 -10 -16 0 -29 -4 -29 -10 0 -54 428 -972 520 -1113 30 -48 31 -49 56 -32 13 8 29 13 34 10 5 -3 38 11 73 30 74 40 260 112 462 178 166 54 215 65 215 47 0 -27 -537 -547 -581 -562 -33 -12 117 -238 158 -238 8 0 17 9 20 20 4 15 9 17 23 10 30 -16 37 -12 59 33 26 51 154 195 586 657 346 370 447 481 441 488 -9 8 -230 -59 -726 -223 -615 -203 -716 -235 -747 -235 -29 0 -29 11 0 30 80 51 340 199 637 363 452 248 646 360 713 408 4 3 -25 77 -66 165 -41 87 -111 237 -156 333 -101 219 -103 220 -166 198z m125 -238 c0 -5 -4 -9 -10 -9 -5 0 -10 7 -10 16 0 8 5 12 10 9 6 -3 10 -10 10 -16z m-73 -16 c11 -28 -64 -83 -183 -137 -306 -137 -928 -400 -1078 -457 -46 -17 -63 -19 -82 -10 -25 11 -41 52 -29 71 12 20 156 82 589 255 449 179 744 293 764 294 7 1 16 -7 19 -16z m123 -292 c0 -42 -107 -107 -560 -341 -611 -316 -679 -350 -705 -350 -31 0 -75 41 -75 70 0 46 39 70 430 255 113 53 300 140 415 192 420 191 495 217 495 174z m-1542 -301 c12 -33 -1 -41 -18 -11 -12 24 -13 54 -1 47 5 -3 14 -19 19 -36z m186 -409 c-8 -9 -42 31 -47 54 -7 41 6 38 29 -7 12 -24 20 -45 18 -47z"
       id="path86" />
    <path
       d="M12351 4926 c-7 -9 -17 -13 -22 -10 -15 9 -49 -6 -49 -21 0 -8 10 -21 23 -30 30 -19 138 -34 168 -22 13 5 35 11 48 13 33 7 41 12 41 29 0 19 -8 23 -76 34 -32 5 -73 13 -90 16 -21 5 -34 2 -43 -9z"
       id="path88" />
    <path
       d="M10152 4744 c-12 -8 -26 -13 -31 -10 -18 11 -67 -43 -99 -108 -18 -36 -32 -70 -32 -76 0 -5 96 -58 213 -116 527 -264 1080 -569 1148 -634 56 -54 67 -129 17 -115 -103 29 -1020 551 -1303 741 -52 36 -80 42 -88 22 -2 -7 -17 -13 -33 -13 -25 0 -33 -9 -66 -65 -63 -110 -63 -109 34 -157 146 -73 846 -495 1071 -645 156 -104 197 -142 197 -179 0 -44 -22 -45 -103 -7 -117 56 -957 601 -1139 739 -80 61 -98 68 -117 45 -6 -7 -22 -11 -34 -9 -20 4 -31 -7 -75 -74 -28 -43 -52 -83 -54 -90 -2 -6 65 -54 147 -105 212 -134 774 -507 940 -625 136 -97 225 -179 225 -206 0 -7 -6 -21 -12 -30 -12 -16 -25 -9 -144 66 -351 224 -1018 692 -1111 780 -30 28 -34 30 -60 17 -16 -7 -35 -12 -44 -11 -32 4 -147 -152 -135 -184 3 -8 13 -15 22 -15 42 0 741 -497 1065 -756 136 -109 189 -165 189 -198 0 -35 18 -42 45 -16 15 14 25 18 30 11 12 -20 22 -12 82 67 171 222 548 828 707 1136 63 122 68 142 34 131 -106 -33 -105 -34 -251 37 -217 106 -912 480 -1093 589 -45 27 -87 56 -94 64 -16 19 -20 19 -48 -1z m1314 -1017 c-5 -21 -33 -44 -42 -34 -2 1 6 17 18 35 23 36 34 36 24 -1z m-226 -358 c-7 -11 -14 -18 -17 -15 -3 3 0 12 7 21 18 21 23 19 10 -6z"
       id="path90" />
    <path
       d="M390 4635 c-92 -31 -170 -73 -170 -90 0 -17 41 -20 86 -6 16 5 63 20 104 32 89 26 120 44 120 70 0 26 -54 24 -140 -6z"
       id="path92" />
    <path
       d="M12160 4310 c0 -5 -13 -10 -29 -10 -17 0 -33 -5 -37 -12 -12 -19 33 -47 120 -72 110 -34 121 -35 120 -13 -1 9 -1 17 0 17 0 0 16 -4 33 -9 21 -6 35 -6 39 0 19 31 -124 109 -201 109 -25 0 -45 -4 -45 -10z"
       id="path94" />
    <path
       d="M635 4042 c-145 -50 -224 -104 -191 -131 16 -14 39 -10 161 30 98 32 145 65 145 104 0 32 -13 31 -115 -3z"
       id="path96" />
    <path
       d="M11915 3721 c-6 -5 -23 -11 -39 -13 -71 -8 -25 -50 95 -88 77 -24 95 -21 58 9 -29 25 -24 25 31 6 64 -23 69 -18 22 24 -66 61 -141 88 -167 62z"
       id="path98" />
    <path
       d="M825 3519 c-75 -25 -135 -79 -135 -123 0 -42 45 -102 94 -126 52 -25 52 -25 132 1 51 17 70 28 85 53 35 57 17 157 -33 190 -38 25 -78 26 -143 5z"
       id="path100" />
    <path
       d="M11631 3191 c-77 -25 -101 -50 -101 -101 0 -48 11 -73 53 -117 40 -42 61 -43 55 -3 -5 35 -4 36 24 10 36 -33 47 -26 45 30 -2 44 2 53 34 87 51 53 63 78 44 93 -24 20 -96 20 -154 1z"
       id="path102" />
    <path
       d="M3743 3155 c-12 -8 -29 -12 -38 -9 -24 10 -96 -71 -240 -266 -316 -428 -609 -816 -679 -899 -76 -91 -77 -93 -61 -117 22 -35 124 -112 164 -125 29 -10 36 -9 47 5 8 12 20 15 37 11 22 -6 28 -2 43 27 39 77 450 662 772 1098 67 91 122 170 122 177 0 11 -125 113 -139 113 -4 0 -16 -7 -28 -15z"
       id="path104" />
    <path
       d="M3950 3000 c-9 -17 -14 -18 -32 -9 -12 7 -23 7 -27 2 -3 -5 -89 -133 -190 -284 -407 -605 -617 -910 -685 -993 l-40 -49 26 -22 c15 -13 66 -46 113 -75 87 -53 95 -54 108 -16 2 5 14 3 27 -4 20 -11 25 -11 29 1 33 101 366 620 711 1109 120 170 150 218 150 244 0 18 -48 55 -117 90 -63 31 -60 31 -73 6z"
       id="path106" />
    <path
       d="M1259 2911 c-26 -9 -64 -28 -86 -43 -44 -31 -119 -106 -112 -112 8 -7 136 40 190 70 64 37 94 68 86 89 -8 18 -18 18 -78 -4z"
       id="path108" />
    <path
       d="M8356 2715 c8 -42 -1 -44 -38 -8 l-28 27 0 -27 c0 -41 -7 -14 258 -1067 50 -195 95 -389 102 -430 7 -41 14 -80 15 -87 5 -14 131 27 193 63 43 25 56 59 28 70 -8 3 -23 31 -34 62 -48 132 -187 662 -180 683 4 12 286 -297 389 -426 82 -102 101 -141 93 -184 -7 -35 -4 -37 35 -16 16 8 31 12 34 8 12 -11 276 147 313 188 l19 21 -42 -7 c-52 -8 -70 1 -152 79 -83 79 -392 419 -652 716 -204 234 -333 370 -351 370 -5 0 -6 -16 -2 -35z"
       id="path110" />
    <path
       d="M4422 2618 c-19 -20 -24 -21 -32 -8 -8 12 -50 -26 -208 -185 -301 -305 -845 -873 -865 -906 -30 -46 -19 -69 46 -103 54 -29 59 -30 71 -14 8 10 24 16 41 15 22 -1 30 3 33 18 3 11 18 38 36 60 89 114 455 519 463 512 4 -4 -35 -150 -119 -442 -64 -225 -75 -255 -110 -296 -21 -26 -38 -49 -38 -52 0 -14 60 -60 120 -91 84 -43 118 -52 126 -31 4 9 16 15 28 14 42 -3 46 0 46 44 0 23 9 78 19 122 52 229 234 880 325 1163 68 211 70 232 18 180z"
       id="path112" />
    <path
       d="M11230 2634 c0 -3 5 -14 10 -25 13 -23 3 -24 -24 -4 -59 45 -61 -9 -2 -63 69 -64 117 -70 81 -10 l-18 31 35 -26 c31 -24 68 -36 68 -22 0 21 -37 70 -72 95 -37 27 -78 40 -78 24z"
       id="path114" />
    <path
       d="M1655 2398 c-95 -31 -185 -103 -185 -148 0 -25 12 -25 78 -1 64 24 141 79 164 119 25 43 8 52 -57 30z"
       id="path116" />
    <path
       d="M5915 2323 c-16 -2 -39 -8 -50 -13 -11 -4 -32 -11 -46 -14 -15 -3 -30 -13 -33 -22 -3 -9 -24 -177 -46 -374 -66 -593 -143 -1159 -165 -1213 -10 -25 40 -43 157 -56 119 -13 319 -14 350 -2 13 5 35 12 49 15 24 5 27 11 33 67 14 121 151 689 166 689 15 0 122 -466 150 -653 10 -71 10 -81 -6 -98 -32 -35 -7 -42 136 -37 80 3 135 9 142 16 7 7 21 12 33 12 11 0 27 4 35 10 12 8 12 11 -2 27 -31 34 -94 257 -188 663 -27 118 -70 303 -95 410 -62 270 -108 440 -117 440 -5 0 -13 -20 -20 -45 -15 -54 -24 -57 -32 -10 -4 19 -11 35 -15 35 -13 0 -74 -217 -191 -680 -149 -586 -210 -803 -230 -815 -5 -3 -14 4 -21 17 -20 37 2 378 60 938 25 237 41 388 57 524 9 84 13 151 8 156 -12 11 -81 18 -119 13z"
       id="path118" />
    <path
       d="M10810 2132 c0 -32 149 -162 185 -162 24 0 -72 110 -131 151 -50 34 -54 35 -54 11z"
       id="path120" />
    <path
       d="M10740 2113 c0 -35 169 -178 188 -159 14 14 -152 176 -180 176 -5 0 -8 -8 -8 -17z"
       id="path122" />
    <path
       d="M2114 1935 c-12 -8 -24 -12 -27 -8 -20 19 -197 -135 -197 -171 0 -24 19 -29 46 -11 13 9 29 13 34 10 25 -15 140 87 174 153 9 17 16 33 16 37 0 10 -26 5 -46 -10z"
       id="path124" />
    <path
       d="M10340 1678 c0 -16 51 -68 67 -68 21 0 15 29 -12 55 -25 26 -55 33 -55 13z"
       id="path126" />
    <path
       d="M10276 1661 c-8 -12 42 -71 60 -71 22 0 17 28 -11 55 -25 26 -40 31 -49 16z"
       id="path128" />
    <path
       d="M2575 1521 c-6 -5 -23 -11 -39 -13 -52 -6 -164 -171 -141 -208 5 -8 14 -6 31 4 13 9 35 16 49 16 46 0 176 157 161 195 -6 17 -47 20 -61 6z"
       id="path130" />
    <path
       d="M9805 1310 c-9 -15 19 -61 64 -105 45 -43 51 -34 22 32 -29 63 -70 99 -86 73z"
       id="path132" />
    <path
       d="M9746 1293 c-16 -16 -2 -46 43 -95 27 -29 52 -51 55 -47 3 3 -8 33 -23 66 -27 57 -60 91 -75 76z"
       id="path134" />
    <path
       d="M2991 1139 c-81 -28 -118 -71 -105 -123 4 -18 11 -21 38 -18 44 5 100 -40 93 -75 -5 -29 4 -29 103 1 l75 22 3 46 c4 58 -13 123 -39 149 -24 24 -93 24 -168 -2z"
       id="path136" />
    <path
       d="M9285 983 c-22 -8 -52 -20 -67 -25 -39 -14 -68 -66 -68 -119 0 -55 6 -64 53 -84 49 -20 60 -19 52 6 -6 18 -4 20 17 13 40 -12 52 -10 53 11 0 14 13 23 53 35 85 24 93 66 25 131 -48 46 -68 52 -118 32z"
       id="path138" />
    <path
       d="M3672 828 c-12 -12 -22 -17 -22 -10 0 7 -7 12 -15 12 -36 0 -119 -180 -94 -204 10 -11 17 -5 53 49 13 19 14 18 9 -7 -6 -32 12 -38 34 -10 22 27 83 155 83 174 0 25 -21 23 -48 -4z"
       id="path140" />
    <path
       d="M8682 708 c-17 -17 -15 -43 4 -59 13 -10 17 -10 25 2 21 33 -4 82 -29 57z"
       id="path142" />
    <path
       d="M8603 674 c-7 -20 9 -49 28 -49 22 0 18 59 -4 63 -9 2 -20 -4 -24 -14z"
       id="path144" />
    <path
       d="M4261 579 c-10 -17 -15 -19 -21 -9 -4 7 -15 10 -24 7 -35 -14 -109 -208 -87 -230 6 -6 12 -9 14 -6 2 2 13 17 25 33 20 26 22 27 22 7 0 -11 4 -21 9 -21 29 0 111 156 111 210 0 36 -28 41 -49 9z"
       id="path146" />
    <path
       d="M8077 473 c-13 -12 -7 -41 12 -64 l19 -24 11 28 c16 42 -15 87 -42 60z"
       id="path148" />
    <path
       d="M8017 453 c-12 -11 -8 -48 7 -68 13 -18 14 -18 26 4 18 35 -9 88 -33 64z"
       id="path150" />
    <path
       d="M4881 398 c-8 -22 -24 -109 -36 -193 l-5 -40 20 37 c30 55 71 184 64 202 -9 23 -33 19 -43 -6z"
       id="path152" />
    <path
       d="M4820 385 c-11 -14 -53 -226 -45 -233 5 -5 43 83 67 155 26 77 13 121 -22 78z"
       id="path154" />
    <path
       d="M7450 295 c0 -25 5 -45 10 -45 6 0 10 20 10 45 0 25 -4 45 -10 45 -5 0 -10 -20 -10 -45z"
       id="path156" />
    <path
       d="M7387 307 c-10 -26 -9 -65 2 -71 12 -8 19 33 11 64 -5 22 -7 23 -13 7z"
       id="path158" />
    <path
       d="M5511 293 c-15 -29 -25 -138 -13 -158 9 -16 11 -15 28 11 14 20 19 46 19 93 0 66 -14 89 -34 54z"
       id="path160" />
    <path
       d="M5442 265 c-14 -29 -16 -165 -4 -165 18 0 42 73 42 130 0 66 -17 81 -38 35z"
       id="path162" />
    <path
       d="M6150 250 c-8 -5 -24 -10 -35 -10 -32 0 -91 -45 -109 -84 -22 -46 -8 -76 34 -76 20 0 31 -6 35 -20 8 -24 22 -25 46 -4 23 21 42 9 35 -21 -11 -42 32 -44 52 -2 9 18 11 19 11 5 1 -26 27 -22 50 8 16 20 21 41 21 86 0 55 -3 63 -34 94 -35 35 -75 44 -106 24z m83 -170 c-3 -11 -7 -20 -9 -20 -2 0 -4 9 -4 20 0 11 4 20 9 20 5 0 7 -9 4 -20z"
       id="path164" />
    <path
       d="M6806 245 c-3 -9 -6 -29 -7 -43 -1 -27 -1 -27 -15 6 -26 59 -54 28 -54 -60 0 -90 28 -104 52 -25 l13 42 5 -35 c7 -50 32 -45 49 9 10 31 11 55 5 80 -10 38 -37 53 -48 26z"
       id="path166" />
  </g>
  <ellipse
     style="fill:#4d4d4d;fill-opacity:1;stroke:none;stroke-width:0.298035"
     id="path3953"
     cx="120.40948"
     cy="1240.469"
     rx="83.663719"
     ry="16.867071" />
  <path
     sodipodi:type="arc"
     style="fill:#ff6600;fill-opacity:1;stroke:none;stroke-width:0.263377"
     id="path3074"
     sodipodi:cx="74.102501"
     sodipodi:cy="1174.6149"
     sodipodi:rx="60.231197"
     sodipodi:ry="71.220253"
     d="m 134.29988,1172.2285 a 60.231197,71.220253 0 0 1 -57.993523,73.5589 60.231197,71.220253 0 0 1 -62.387636,-68.3471 60.231197,71.220253 0 0 1 57.608651,-73.9806 60.231197,71.220253 0 0 1 62.743028,67.8907"
     sodipodi:start="6.2496717"
     sodipodi:end="6.2373337"
     sodipodi:open="true"
     sodipodi:arc-type="arc" />
  <path
     sodipodi:type="arc"
     style="fill:#ff6600;fill-opacity:1;stroke:none;stroke-width:0.263377"
     id="path3074-2"
     sodipodi:cx="160.11357"
     sodipodi:cy="1175.3018"
     sodipodi:rx="60.231197"
     sodipodi:ry="71.220253"
     d="m 220.31095,1172.9154 a 60.231197,71.220253 0 0 1 -57.99352,73.5589 60.231197,71.220253 0 0 1 -62.387639,-68.3471 60.231197,71.220253 0 0 1 57.608649,-73.9806 60.231197,71.220253 0 0 1 62.74303,67.8907"
     sodipodi:start="6.2496717"
     sodipodi:end="6.2373337"
     sodipodi:open="true"
     sodipodi:arc-type="arc" />
  <path
     sodipodi:type="arc"
     style="fill:#ff7f2a;fill-opacity:1;stroke:none;stroke-width:0.263377"
     id="path3074-4"
     sodipodi:cx="116.52212"
     sodipodi:cy="1174.8436"
     sodipodi:rx="60.231197"
     sodipodi:ry="71.220253"
     d="m 176.71949,1172.4572 a 60.231197,71.220253 0 0 1 -57.99352,73.559 60.231197,71.220253 0 0 1 -62.387633,-68.3471 60.231197,71.220253 0 0 1 57.608653,-73.9806 60.231197,71.220253 0 0 1 62.74302,67.8907"
     sodipodi:start="6.2496717"
     sodipodi:end="6.2373337"
     sodipodi:open="true"
     sodipodi:arc-type="arc" />
  <path
     style="opacity:0.16;fill:#660080;fill-opacity:1;stroke:none;stroke-width:0.263377"
     d="m 94.351328,1241.5847 c -16.608712,4.6226 -12.942137,6.6694 -26.928236,3.6932 -26.092349,-5.5523 -51.292952,-26.0551 -52.326462,-64.8324 1.485507,24.8709 12.052288,27.6968 15.391293,28.3933 33.088884,28.7732 38.255577,1.9 47.04768,21.5979"
     id="path3074-8"
     inkscape:connector-curvature="0"
     sodipodi:nodetypes="csccc" />
  <path
     style="opacity:0.15;fill:#660080;fill-opacity:1;stroke:none;stroke-width:0.263377"
     d="m 219.83878,1174.8305 c 1.11461,39.3118 -30.24697,71.9855 -56.19056,70.9758 -71.72063,-2.7915 -25.62605,8.6663 -4.39969,-20.8525 14.6209,-20.3326 -12.20162,22.3054 38.67776,-14.4259 26.26124,-18.9587 21.88302,-36.5754 21.88302,-36.5754"
     id="path3074-2-1"
     inkscape:connector-curvature="0"
     sodipodi:nodetypes="csssc" />
  <path
     sodipodi:type="arc"
     style="opacity:0.1;fill:#ff3800;fill-opacity:1;stroke:none;stroke-width:0.263377"
     id="path3074-4-5"
     sodipodi:cx="118.16757"
     sodipodi:cy="1176.004"
     sodipodi:rx="62.883442"
     sodipodi:ry="69.20974"
     d="m 181.0157,1173.685 a 62.883442,69.20974 0 0 1 -60.54723,71.4824 62.883442,69.20974 0 0 1 -65.134835,-66.4177 62.883442,69.20974 0 0 1 60.145415,-71.8921 62.883442,69.20974 0 0 1 65.50587,65.9742"
     sodipodi:start="6.2496717"
     sodipodi:end="6.2373337"
     sodipodi:open="true"
     sodipodi:arc-type="arc" />
  <path
     style="opacity:0.14;fill:#660080;fill-opacity:1;stroke:none;stroke-width:0.263377"
     d="m 165.0577,1217.4415 c -9.82289,13.403 -13.74347,27.2365 -43.01229,28.5545 -33.238179,1.4968 -45.590104,-15.3901 -52.519064,-25.6117 -7.371756,-14.0649 38.184794,17.555 61.889104,10.243"
     id="path3074-4-6"
     inkscape:connector-curvature="0"
     sodipodi:nodetypes="cscc" />
  <path
     style="fill:#fff6d5;fill-opacity:1;stroke:none;stroke-width:0.263377"
     d="m 92.972144,1169.2209 c 0.432514,3.4858 -19.94891,-7.5194 -32.848746,-7.4027 -12.89985,0.1164 -5.147239,-11.6824 -5.579725,-15.1682 -0.432488,-3.486 19.558018,-4.8635 24.562786,6.7547 4.832894,11.2193 19.896573,6.4549 20.483033,9.9087"
     id="path4176"
     inkscape:connector-curvature="0"
     sodipodi:nodetypes="csssc" />
  <path
     style="fill:#fff6d5;fill-opacity:1;stroke:none;stroke-width:0.263377"
     d="m 169.83281,1169.1452 c 0.43253,1.3673 -8.34854,8.3857 -21.24838,8.4315 -12.89983,0.046 -17.079,-8.7925 -17.51149,-10.16 -0.43252,-1.3673 7.29479,-1.9077 12.29954,2.6496 4.83291,4.4007 35.14275,-9.127 35.72921,-7.7722"
     id="path4176-5"
     inkscape:connector-curvature="0"
     sodipodi:nodetypes="csssc" />
  <path
     style="opacity:0.4548;fill:#2c2ca0;fill-opacity:1;stroke:none;stroke-width:0.263377"
     d="m 158.83153,1124.487 c -6.42815,4.2076 -16.95836,-4.6495 -19.46306,-4.8586 -17.26035,-1.441 -20.03485,-3.9984 -20.03485,-3.9984 -0.0318,-1.4303 -2.7632,-2.0305 -9.60635,-2.2982 -1.97349,-0.076 26.58383,-0.6721 29.17978,-0.5485"
     id="path4218-2"
     inkscape:connector-curvature="0"
     sodipodi:nodetypes="cscsc" />
  <path
     style="opacity:0.4548;fill:#2c2ca0;fill-opacity:1;stroke:none;stroke-width:0.263377"
     d="m 173.83145,1109.0409 c 0.22875,2.4106 -11.31499,1.2792 -18.11968,1.7579 -15.99343,1.1251 -19.34676,-1.2754 -19.34676,-1.2754 -0.0295,-1.2712 23.42937,1.9668 24.29994,-5.4605 0.13414,-1.1445 13.94683,1.4913 16.74902,3.3102"
     id="path4218"
     inkscape:connector-curvature="0"
     sodipodi:nodetypes="cscsc" />
  <path
     style="opacity:0.4548;fill:#2c2ca0;fill-opacity:1;stroke:none;stroke-width:0.263377"
     d="m 118.50384,1111.7566 c -5.54619,1.9848 -23.64956,-1.4755 -25.744331,-1.0861 -15.798677,2.9371 -20.458749,3.0167 -20.458749,3.0167 -4.673214,0.6113 -6.916567,-3.0474 -5.115593,-5.9867 0.678981,-1.1082 44.352443,-3.13 42.173053,2.3936"
     id="path4218-2-1"
     inkscape:connector-curvature="0"
     sodipodi:nodetypes="cscsc" />
  <path
     style="fill:#445500;fill-opacity:1;stroke:none;stroke-width:0.263377"
     d="m 148.84201,1120.4413 c -9.76948,-4.5382 -11.36093,-7.7171 -20.50822,-7.5282 -9.1473,0.1887 -20.45708,2.578 -20.76377,-3.0531 -0.30666,-5.631 14.8146,-3.2239 23.96189,-3.4128 9.06761,-0.1871 25.31138,9.6547 25.72721,15.234"
     id="path4200"
     inkscape:connector-curvature="0"
     sodipodi:nodetypes="csssc" />
  <path
     style="fill:#445500;fill-opacity:1;stroke:none;stroke-width:0.263377"
     d="m 160.67701,1105.2755 c 0.43854,2.2654 -0.42346,3.7982 -13.50407,3.8742 -13.08065,0.075 -24.04011,-1.6988 -24.47864,-3.9642 -0.43854,-2.2653 4.50686,-6.3044 17.5875,-6.3805 12.96663,-0.075 47.03342,-1.4291 41.33076,6.5253"
     id="path4204"
     inkscape:connector-curvature="0"
     sodipodi:nodetypes="cscsc" />
  <path
     style="fill:#445500;fill-opacity:1;stroke:none;stroke-width:0.263377"
     d="m 127.11181,1103.8363 c 0.1258,10.9047 -14.41295,5.791 -18.16338,6.1566 -3.75037,0.3656 -10.206975,4.7765 -10.332709,-6.1281 -0.125807,-10.9044 9.772839,-16.802 -5.037349,-38.2187 -2.091795,-3.0248 22.422158,7.0631 22.592648,17.8675"
     id="path4206"
     inkscape:connector-curvature="0"
     sodipodi:nodetypes="csssc" />
  <path
     style="fill:#445500;fill-opacity:1;stroke:none;stroke-width:0.263377"
     d="m 105.48158,1111.2153 c 0.36188,4.648 -5.11193,-1.4977 -15.905723,-1.3418 -10.793807,0.1558 -31.437627,0.076 -31.799505,-4.5711 -0.361862,-4.6477 7.763438,-8.2181 18.557246,-8.374 10.699761,-0.1543 31.962092,6.3394 32.452792,10.9445"
     id="path4202"
     inkscape:connector-curvature="0"
     sodipodi:nodetypes="csssc" />
  <path
     style="fill:#009c00;fill-opacity:1;stroke:none;stroke-width:0.263377"
     d="m 109.21227,1082.874 c 4.49575,15.7705 0.45551,20.5108 -5.12434,20.6485 -5.57987,0.138 0.68258,-16.0378 0.49551,-20.1493 -0.18705,-4.1116 -10.657856,-18.7554 -6.476006,-15.143 17.463066,15.0848 13.166296,10.8021 13.419956,14.8758"
     id="path4212"
     inkscape:connector-curvature="0"
     sodipodi:nodetypes="csssc" />
  <path
     style="fill:#007e00;fill-opacity:1;stroke:none;stroke-width:0.263377"
     d="m 96.484933,1105.3904 c 7.484867,5.35 -11.61349,-0.2772 -19.696347,-1.8366 -5.653973,-1.0907 -15.562677,3.1934 -15.755874,1.4059 -0.193209,-1.7877 11.944929,-4.9046 17.707714,-4.9646 5.712592,-0.059 23.111874,1.3171 23.373844,3.0883"
     id="path4214"
     inkscape:connector-curvature="0"
     sodipodi:nodetypes="csssc" />
  <path
     style="opacity:0.57;fill:#ffd42a;fill-opacity:1;stroke:none;stroke-width:0.263377"
     d="m 108.98403,1174.8058 c 0.63505,5.4868 -29.291687,-11.8355 -48.233037,-11.6516 -18.941322,0.184 -7.557878,-18.3878 -8.19292,-23.8747 -0.635029,-5.4868 37.574798,-2.1485 36.0665,10.6319 -2.250196,19.0669 29.214827,10.16 30.076007,15.5963"
     id="path4176-9"
     inkscape:connector-curvature="0"
     sodipodi:nodetypes="csssc" />
  <path
     style="opacity:0.57;fill:#ffd42a;fill-opacity:1;stroke:none;stroke-width:0.263377"
     d="m 182.49612,1162.6776 c 0.64136,2.6336 -12.38003,16.1515 -31.50933,16.2396 -19.12916,0.087 -19.7846,-13.1068 -20.42591,-15.7404 -0.64147,-2.6335 11.32122,-3.435 15.2161,1.9928 6.44625,8.9829 49.59441,-18.2973 50.46398,-15.6879"
     id="path4176-5-8"
     inkscape:connector-curvature="0"
     sodipodi:nodetypes="csssc" />
  <path
     style="fill:#006a00;fill-opacity:1;stroke:none;stroke-width:0.263377"
     d="m 114.63471,1107.3163 c -7.48488,5.3502 11.08791,4.1741 19.31851,3.667 9.93633,-0.6122 19.59312,9.6539 19.78633,7.8662 0.19321,-1.7875 -11.18923,-10.5276 -16.95201,-10.5876 -5.71257,-0.059 -12.40596,-3.2291 -12.66792,-1.4581"
     id="path4214-7"
     inkscape:connector-curvature="0"
     sodipodi:nodetypes="csssc" />
  <path
     style="fill:#fff6d5;fill-opacity:1;stroke:none;stroke-width:0.263377"
     d="m 88.648039,1215.2244 c -13.502989,0.1922 -27.325325,-11.9652 -27.778027,-17.6963 -0.452702,-5.7311 6.049466,10.5523 19.55244,10.3602 13.385348,-0.1905 26.524928,-3.4446 27.138778,2.2337"
     id="path4197"
     inkscape:connector-curvature="0"
     sodipodi:nodetypes="cssc" />
  <path
     style="opacity:0.5224;fill:#ffcc00;fill-opacity:1;stroke:none;stroke-width:0.263377"
     d="m 96.959519,1218.2568 c -23.823247,0.3605 -40.802216,-17.6751 -40.698537,-28.433 0.103664,-10.7581 3.535219,15.0226 27.358378,14.6618 23.61558,-0.3575 36.35081,-1.6802 36.53942,8.9788"
     id="path4197-3-2"
     inkscape:connector-curvature="0"
     sodipodi:nodetypes="cssc" />
</svg>
